<svg width="40" height="62" viewBox="0 0 40 62" fill="none" xmlns="http://www.w3.org/2000/svg">
<path d="M21.9695 5.46098H21.5964V1.71569C21.5964 0.836765 20.8825 0.122864 20.0036 0.122864C19.1247 0.122864 18.4108 0.836765 18.4108 1.71569V5.46098H18.0305L0 39.1973L1.05471 40.1121C4.63498 43.2152 7.10673 47.3336 8.2009 51.8502H4.25471C3.37578 51.8502 2.66188 52.5641 2.66188 53.443C2.66188 54.322 3.37578 55.0359 4.25471 55.0359H8.73901C8.80717 55.7426 8.84664 56.4529 8.84664 57.1668V61.8771H12.0359H17.191H27.9677H31.1569H31.2502V55.2045C31.2538 55.1471 31.2574 55.0933 31.2646 55.0359H35.7489C36.6278 55.0359 37.3417 54.322 37.3417 53.443C37.3417 52.5641 36.6278 51.8502 35.7489 51.8502H31.7991C32.8933 47.33 35.365 43.2152 38.9453 40.1121L40 39.1973L21.9695 5.46098ZM28.5202 51.8502H11.4798C10.4072 46.7668 7.82063 42.096 4 38.4762L18.4072 11.5238V37.9166C17.6717 38.4224 17.191 39.2691 17.191 40.2305C17.191 41.7839 18.4502 43.043 20.0036 43.043C21.5569 43.043 22.8161 41.7839 22.8161 40.2305C22.8161 39.2691 22.3318 38.426 21.6 37.9166V11.5238L36.0072 38.4762C32.183 42.096 29.5928 46.7704 28.5202 51.8502Z" fill="#F25822"/>
</svg>
